<svg width="55" height="55" viewBox="0 0 55 55" fill="none" xmlns="http://www.w3.org/2000/svg">
    <g clip-path="url(#clip0_1_76)">
        <path d="M27.2253 13.776C27.2253 6.16682 33.3348 0 40.8647 0C48.3678 0 54.4506 6.14368 54.4506 13.722V41.2741C54.4506 48.8525 48.3678 54.9961 40.8647 54.9961H27.2253C34.7438 54.9961 40.838 48.8447 40.838 41.2471C40.838 30.0319 27.2253 24.9064 27.2253 13.7722V13.776Z" fill="#00BE4B"/>
        <path d="M27.2252 41.224C27.2252 48.8332 21.1196 55 13.5859 55C6.08272 55 0 48.8525 0 41.2741V13.722C0 6.14368 6.08272 0 13.5859 0H27.2252C19.7068 0 13.6126 6.15139 13.6126 13.749C13.6126 24.9642 27.2252 30.0898 27.2252 41.224Z" fill="#00BE4B"/>
    </g>
    <defs>
        <clipPath id="clip0_1_76">
            <rect width="55" height="55" fill="white"/>
        </clipPath>
    </defs>
</svg>